<svg width="512" height="512" viewBox="0 0 512 512" fill="none" xmlns="http://www.w3.org/2000/svg">
  <rect width="512" height="512" rx="100" fill="#0a0a1a"/>
  <rect x="60" y="60" width="392" height="392" rx="80" fill="url(#glass)" fill-opacity="0.1" stroke="rgba(255,255,255,0.15)" stroke-width="2"/>
  <defs>
    <linearGradient id="glass" x1="0" y1="0" x2="1" y2="1">
      <stop offset="0%" stop-color="rgba(255,255,255,0.15)"/>
      <stop offset="100%" stop-color="rgba(255,255,255,0.02)"/>
    </linearGradient>
    <linearGradient id="logo-grad" x1="0" y1="0" x2="1" y2="1">
      <stop offset="0%" stop-color="#6c5ce7"/>
      <stop offset="100%" stop-color="#00cec9"/>
    </linearGradient>
  </defs>
  <g transform="translate(139, 85) scale(1.8)">
    <path d="M18 30H6V18H18V30Z" fill="url(#logo-grad)"/>
    <path d="M18 12H6V30H18V12ZM24 36H0V6H24V36Z" fill="rgba(255,255,255,0.3)"/>
    <path d="M48 30H36V18H48V30Z" fill="url(#logo-grad)"/>
    <path d="M36 30H48V12H36V30ZM54 36H36V42H30V6H54V36Z" fill="rgba(255,255,255,0.3)"/>
    <path d="M84 24V30H66V24H84Z" fill="url(#logo-grad)"/>
    <path d="M84 24H66V30H84V36H60V6H84V24ZM66 18H78V12H66V18Z" fill="rgba(255,255,255,0.3)"/>
    <path d="M108 36H96V18H108V36Z" fill="url(#logo-grad)"/>
    <path d="M108 12H96V36H90V6H108V12ZM114 36H108V12H114V36Z" fill="rgba(255,255,255,0.3)"/>
  </g>
  <circle cx="256" cy="256" r="180" fill="none" stroke="url(#logo-grad)" stroke-width="1" opacity="0.2"/>
  <circle cx="256" cy="256" r="200" fill="none" stroke="url(#logo-grad)" stroke-width="0.5" opacity="0.1"/>
</svg>
